<?xml version="1.0" encoding="utf-8"?>
<!-- Generator: Adobe Illustrator 25.0.1, SVG Export Plug-In . SVG Version: 6.00 Build 0)  -->
<svg version="1.0" id="katman_1" xmlns="http://www.w3.org/2000/svg" xmlns:xlink="http://www.w3.org/1999/xlink" x="0px" y="0px"
	 viewBox="0 0 560 400" style="enable-background:new 0 0 560 400;" xml:space="preserve">
<g>
	<g id="Logo">
		<polygon points="186.7,127.4 186.7,170.2 209.1,170.2 217.8,161.5 217.8,136.2 209.1,127.4 		"/>
		<polygon points="342.2,127.4 342.2,170.2 364.6,170.2 373.3,161.5 373.3,136.2 364.6,127.4 		"/>
		<polygon points="186.7,193.5 186.7,236.4 209.1,236.4 217.8,227.6 217.8,202.3 209.1,193.5 		"/>
		<path d="M124.4,65.2v233.3h311.1V65.2H124.4z M241.1,171.2l-10.7,10.7l10.7,10.7v44.6l-22.4,22.4h-55.4V104.1h55.4l22.4,22.4
			V171.2z M299.4,176.2l-38.8,38.8v-27.5l38.8-38.8L299.4,176.2z M376.5,259.6l-18.1-66.1h-16.3v66.3h-23.2V104.1h55.4l22.4,22.4
			v44.6l-16.4,16.4l19.4,72.4L376.5,259.6z"/>
	</g>
	<g>
		<g id="Logo_1_">
			<polygon points="186.7,127.4 186.7,170.2 209.1,170.2 217.8,161.5 217.8,136.2 209.1,127.4 			"/>
			<polygon points="342.2,127.4 342.2,170.2 364.6,170.2 373.3,161.5 373.3,136.2 364.6,127.4 			"/>
			<polygon points="186.7,193.5 186.7,236.4 209.1,236.4 217.8,227.6 217.8,202.3 209.1,193.5 			"/>
			<path d="M124.4,65.2v233.3h311.1V65.2H124.4z M241.1,171.2l-10.7,10.7l10.7,10.7v44.6l-22.4,22.4h-55.4V104.1h55.4l22.4,22.4
				V171.2z M299.4,176.2l-38.8,38.8v-27.5l38.8-38.8L299.4,176.2z M376.5,259.6l-18.1-66.1h-16.3v66.3h-23.2V104.1h55.4l22.4,22.4
				v44.6l-16.4,16.4l19.4,72.4L376.5,259.6z"/>
		</g>
	</g>
</g>
</svg>
