<svg version="1.1" xmlns="http://www.w3.org/2000/svg" xmlns:xlink="http://www.w3.org/1999/xlink" width="2500" height="793" viewBox="0,0,256,81.20313"><g transform="translate(24.32,7.7143) scale(0.81,0.81)"><g fill="#fdfbfb" fill-rule="nonzero" stroke="none" stroke-width="1" stroke-linecap="butt" stroke-linejoin="miter" stroke-miterlimit="10" stroke-dasharray="" stroke-dashoffset="0" font-family="none" font-weight="none" font-size="none" text-anchor="none" style="mix-blend-mode: normal"><path d="M-30.02469,90.72695v-100.25077h316.04938v100.25077z" id="bgRectangle"></path></g><g fill="none" fill-rule="nonzero" stroke="none" stroke-width="none" stroke-linecap="butt" stroke-linejoin="none" stroke-miterlimit="10" stroke-dasharray="" stroke-dashoffset="0" font-family="none" font-weight="none" font-size="none" text-anchor="none" style="mix-blend-mode: normal"><path transform="translate(0.30283,0.89107) scale(0.1277,0.12524)" d="M426.54,4.54c14.42,0 28.91,0 43.39,-0.1c-0.16,51.81 0.52,103.63 -0.32,155.44c-0.37,33.44 -14.48,69.08 -45.13,85.67c-34.64,17.64 -78.56,17.54 -112.52,-1.63c-28.91,-16.92 -42.96,-51.71 -42.18,-84.15c0.16,-51.76 0.05,-103.52 0.11,-155.28h42.11c0.11,44.81 -0.1,89.57 0.05,134.38c0.74,20.59 0.79,43 13.17,60.55c16.64,22.91 51.55,25.07 75,12.17c21.22,-12.8 25.75,-39.49 26.17,-62.29zM614.52,5.49c36.48,-10.84 77.19,-4.26 109.68,15.17c-0.2,15.16 -0.2,30.27 -0.2,45.39c-27.27,-20.33 -63.55,-35.28 -97.41,-23.44c-14.64,4.38 -24.22,22 -17.17,36.18c5.79,13.58 21.54,17.53 34,22.59c26.85,10.69 57.81,16.43 77.72,39.12c25.59,30.91 19.11,85.94 -18.38,104.74c-42.18,21.85 -94.89,14.9 -135.33,-7.85c-0.05,-15.59 -0.05,-31.12 -0.21,-46.71c30.44,23.44 72.67,37.34 109.95,23.07c20.33,-7.37 22.91,-39 4.48,-49.92c-28.6,-17.32 -63.72,-20.85 -91.15,-40.49c-24.11,-17.34 -31.22,-51.71 -21.21,-78.78zM1006,0.75c57.39,52.66 113.21,107.11 169.55,160.92v-157.18h42.12v254.23c-57.45,-54.56 -113.31,-110.74 -171.08,-165v159.45c-13.63,0.1 -27.22,0.1 -40.8,0.15zM1328.32,4.44c50.82,0 101.58,0.26 152.34,-0.16c0.31,12.8 0.31,25.59 0.31,38.39c-36.43,0 -72.82,-0.06 -109.26,0v59.13c32.49,0.11 64.93,0 97.42,0.11v38.12c-32.49333,0.04667 -64.96667,0.04667 -97.42,0c0,25 0,50.08 0.11,75.09c36.33,-0.16 72.72,0 109,-0.11c0.05,13.17 0.1,26.38 0.1,39.55h-152.7zM1604.4,14.23c39.49,-22.85 89.94,-15.85 128.69,5.22c0.74,15.48 0.74,31 0.69,46.49c-28.12,-21.06 -66,-36.12 -100.52,-22.32c-19.59,7 -21.86,36.54 -4.06,46.75c29,16.64 64.45,20 91.57,40.44c36.44,27.17 33.75,92.94 -7.9,114c-42.18,22.12 -95.41,15.59 -135.75,-7.79c0,-15.38 0,-30.75 -0.26,-46.13c29.38,21 66.77,35.28 103,25.49c13.37,-3.37 25.64,-15.38 23.74,-30.12c0.27,-11.27 -7.63,-21.17 -17.53,-25.8c-28.44,-14.75 -62,-18.91 -87.78,-38.86zM1857.15,15.08c39.17,-23.7 90.46,-17.33 129.16,4.31c0.16,15.33 0.16,30.6 0.27,45.92c-27.86,-21.06 -65.88,-35.33 -99.94,-21.43c-19,7.37 -21.17,36.07 -3.8,46.49c29.7,17.28 66.67,20 93.84,42.08c23.38,18.43 28.06,52.6 19,79.56c-8.48,24 -32.65,38 -56.4,43.12c-36.44,7.53 -75.35,0.79 -107.73,-17.42c-0.53,-15.64 -0.53,-31.28 -0.58,-46.92c30.64,22.75 72.4,37.33 109.63,23c20.27,-7.37 23.38,-38.44 5.11,-49.71c-29.39,-18.38 -66.46,-21 -94,-42.81zM0.02,4.49v0.00117c-0.00667,-0.00039 -0.01333,-0.00078 -0.02,-0.00117zM132.72,11.92c47.44,15.21 54.18,89.41 10.9,113.52c39.44,16.33 48.49,72.25 21.43,103.21c-16.64,19.8 -43.81,25.06 -68.4,25.8c-32.23,0.53 -64.4,0 -96.63,0.16l0,-250.11883c44.14385,2.57609 89.98645,-6.48907 132.7,7.42883zM843.84,4.49h42.16v250.12h-42.16zM671.23,392.83c39.33,-24.91 91.78,-18 130.64,4.48c-0.21,15.06 -0.21,30.12 -0.16,45.17c-28.43,-20.79 -67.5,-36.85 -101.73,-20.9c-16.9,8.06 -19.11,33.17 -3.9,44.07c31.18,19.8 72.62,20.75 99.52,47.82c18,17 21,44.12 16.38,67.29c-5.37,23.17 -25.59,40.44 -47.87,47c-39,12 -82.77,5.53 -117.84,-14.85c0.11,-15.43 0.16,-30.85 0,-46.28c29.65,22.27 69.93,36.91 106.37,23.85c22,-5.9 26.38,-39.7 6.47,-50.76c-29.43,-18.38 -66.87,-20.69 -93.94,-43.44zM167.21,382.3h42.07c0.1,82.46 0.11667,164.95333 0.05,247.48h-42.12zM329.07,376.51c56.03,53.49 111.93,107.2 168.45,160.18c0.21,-51.92 0.05,-103.79 0.1,-155.65c14,-0.06 28.04333,-0.08 42.13,-0.06c0.1,84.41 -0.11,168.76 0.1,253.17c-57.13,-54.15 -113.15,-109.52 -169.85,-164.15c-0.27,53.24 0,106.52 -0.11,159.81h-40.81c-0.05333,-84.46 -0.05667,-168.89333 -0.01,-253.3zM921.5,382.3h42.13v247.48h-42.13zM1084.79,382.3c33.91333,0 67.86,-0.03667 101.84,-0.11c38.59,-0.47 78.45,19.28 97.31,53.77c20.27,36.22 21.58,81.24 9,120.26c-13.48,41 -53.61,70 -96.36,72.77c-37.23,1.9 -74.51,0.27 -111.79,0.79zM1387.51,382.3c50.44,-0.04667 100.90333,-0.04667 151.39,0c0,12.74 -0.06,25.48 -0.06,38.23c-36.42667,-0.10667 -72.83,-0.10667 -109.21,0v57.81c32.44,0.06 64.91333,0.08 97.42,0.06v36.86c-32.49,0 -65,-0.06 -97.42,0v76.24c36.39,0.11 72.83,0 109.27,0.06v38.17h-151.39zM1662.69,382.25c34.17,0.31 68.35,-0.32 102.47,0.21c29,0.73 59.66,17.43 68,46.7c7.48,25.44 5.69,55.61 -10.64,77.35c-10,13 -26.22,17.91 -41.38,22.07c29.58667,33.42667 58.95,67.09333 88.09,101c-16.66667,0.32 -33.27,0.32 -49.81,0c-28.23,-33.54 -57,-66.61 -85.36,-99.94c-9.37,0.06 -18.69,0.06 -28,0.06c-0.1,33.33 -0.05,66.66 -0.05,100c-14.48,0.04667 -28.96,0.04667 -43.44,0v-247.53z" id="strokeMainSVG" fill="#fffbfb" stroke="#fffbfb" stroke-width="106" stroke-linejoin="round"></path><g transform="translate(0.30283,0.89107) scale(0.1277,0.12524)" fill="#185f7d" stroke="none" stroke-width="1" stroke-linejoin="miter"><path d="M426.54,4.54c14.42,0 28.91,0 43.39,-0.1c-0.16,51.81 0.52,103.63 -0.32,155.44c-0.37,33.44 -14.48,69.08 -45.13,85.67c-34.64,17.64 -78.56,17.54 -112.52,-1.63c-28.91,-16.92 -42.96,-51.71 -42.18,-84.15c0.16,-51.76 0.05,-103.52 0.11,-155.28h42.11c0.11,44.81 -0.1,89.57 0.05,134.38c0.74,20.59 0.79,43 13.17,60.55c16.64,22.91 51.55,25.07 75,12.17c21.22,-12.8 25.75,-39.49 26.17,-62.29c0.36,-48.24 0.04,-96.52 0.15,-144.76M614.52,5.49c36.48,-10.84 77.19,-4.26 109.68,15.17c-0.2,15.16 -0.2,30.27 -0.2,45.39c-27.27,-20.33 -63.55,-35.28 -97.41,-23.44c-14.64,4.38 -24.22,22 -17.17,36.18c5.79,13.58 21.54,17.53 34,22.59c26.85,10.69 57.81,16.43 77.72,39.12c25.59,30.91 19.11,85.94 -18.38,104.74c-42.18,21.85 -94.89,14.9 -135.33,-7.85c-0.05,-15.59 -0.05,-31.12 -0.21,-46.71c30.44,23.44 72.67,37.34 109.95,23.07c20.33,-7.37 22.91,-39 4.48,-49.92c-28.6,-17.32 -63.72,-20.85 -91.15,-40.49c-24.11,-17.34 -31.22,-51.71 -21.21,-78.78c7.47,-19.64 25.54,-33.28 45.23,-39.07M1006,0.75c57.39,52.66 113.21,107.11 169.55,160.92v-157.18h42.12v254.23c-57.45,-54.56 -113.31,-110.74 -171.08,-165v159.45c-13.63,0.1 -27.22,0.1 -40.8,0.15c0.07,-84.17 -0.35,-168.32 0.21,-252.57M1328.32,4.44c50.82,0 101.58,0.26 152.34,-0.16c0.31,12.8 0.31,25.59 0.31,38.39c-36.43,0 -72.82,-0.06 -109.26,0v59.13c32.49,0.11 64.93,0 97.42,0.11v38.12c-32.49333,0.04667 -64.96667,0.04667 -97.42,0c0,25 0,50.08 0.11,75.09c36.33,-0.16 72.72,0 109,-0.11c0.05,13.17 0.1,26.38 0.1,39.55h-152.7c0.1,-83.36 -0.05,-166.71 0.1,-250.12M1604.4,14.23c39.49,-22.85 89.94,-15.85 128.69,5.22c0.74,15.48 0.74,31 0.69,46.49c-28.12,-21.06 -66,-36.12 -100.52,-22.32c-19.59,7 -21.86,36.54 -4.06,46.75c29,16.64 64.45,20 91.57,40.44c36.44,27.17 33.75,92.94 -7.9,114c-42.18,22.12 -95.41,15.59 -135.75,-7.79c0,-15.38 0,-30.75 -0.26,-46.13c29.38,21 66.77,35.28 103,25.49c13.37,-3.37 25.64,-15.38 23.74,-30.12c0.27,-11.27 -7.63,-21.17 -17.53,-25.8c-28.44,-14.75 -62,-18.91 -87.78,-38.86c-33.65,-26.07 -31.43,-85.83 6.11,-107.37M1857.15,15.08c39.17,-23.7 90.46,-17.33 129.16,4.31c0.16,15.33 0.16,30.6 0.27,45.92c-27.86,-21.06 -65.88,-35.33 -99.94,-21.43c-19,7.37 -21.17,36.07 -3.8,46.49c29.7,17.28 66.67,20 93.84,42.08c23.38,18.43 28.06,52.6 19,79.56c-8.48,24 -32.65,38 -56.4,43.12c-36.44,7.53 -75.35,0.79 -107.73,-17.42c-0.53,-15.64 -0.53,-31.28 -0.58,-46.92c30.64,22.75 72.4,37.33 109.63,23c20.27,-7.37 23.38,-38.44 5.11,-49.71c-29.39,-18.38 -66.46,-21 -94,-42.81c-32.47,-26.05 -30.95,-84.27 5.44,-106.19M0,4.49c44.15,2.58 90,-6.49 132.72,7.43c47.44,15.21 54.18,89.41 10.9,113.52c39.44,16.33 48.49,72.25 21.43,103.21c-16.64,19.8 -43.81,25.06 -68.4,25.8c-32.23,0.53 -64.4,0 -96.63,0.16v-250.12M42.2,42.72c-0.05333,21.90667 -0.05333,43.81 0,65.71c22.64,-1.1 46.13,3.16 68.24,-3.21c26.7,-7.74 26.91,-51.71 0.37,-59.71c-22.38,-5.69 -45.81,-1.79 -68.61,-2.79M42.2,145.35c-0.1,23.69 -0.05,47.39 0,71c26,-1.84 53.92,5.11 78.51,-5.79c24.38,-11.9 22.17,-52.45 -3.37,-61.56c-24.22,-7.55 -50.18,-2 -75.14,-3.65M843.84,4.49h42.16v250.12h-42.16zM671.23,392.83c39.33,-24.91 91.78,-18 130.64,4.48c-0.21,15.06 -0.21,30.12 -0.16,45.17c-28.43,-20.79 -67.5,-36.85 -101.73,-20.9c-16.9,8.06 -19.11,33.17 -3.9,44.07c31.18,19.8 72.62,20.75 99.52,47.82c18,17 21,44.12 16.38,67.29c-5.37,23.17 -25.59,40.44 -47.87,47c-39,12 -82.77,5.53 -117.84,-14.85c0.11,-15.43 0.16,-30.85 0,-46.28c29.65,22.27 69.93,36.91 106.37,23.85c22,-5.9 26.38,-39.7 6.47,-50.76c-29.43,-18.38 -66.87,-20.69 -93.94,-43.44c-30.69,-25.94 -28.69,-81.76 6.06,-103.45M167.21,382.3h42.07c0.1,82.46 0.11667,164.95333 0.05,247.48h-42.12zM329.07,376.51c56.03,53.49 111.93,107.2 168.45,160.18c0.21,-51.92 0.05,-103.79 0.1,-155.65c14,-0.06 28.04333,-0.08 42.13,-0.06c0.1,84.41 -0.11,168.76 0.1,253.17c-57.13,-54.15 -113.15,-109.52 -169.85,-164.15c-0.27,53.24 0,106.52 -0.11,159.81h-40.81c-0.05333,-84.46 -0.05667,-168.89333 -0.01,-253.3zM921.5,382.3h42.13v247.48h-42.13zM1084.79,382.3c33.91333,0 67.86,-0.03667 101.84,-0.11c38.59,-0.47 78.45,19.28 97.31,53.77c20.27,36.22 21.58,81.24 9,120.26c-13.48,41 -53.61,70 -96.36,72.77c-37.23,1.9 -74.51,0.27 -111.79,0.79zM1128.18,420.47v171.08c30.17,-1.1 62.66,4.64 90.72,-9.47c27,-13.91 39.34,-45.5 38.55,-74.57c1.1,-29.38 -9.27,-62.34 -36.33,-77.4c-28.39,-15.85 -62.03,-7.63 -92.94,-9.64M1387.51,382.3c50.44,-0.04667 100.90333,-0.04667 151.39,0c0,12.74 -0.06,25.48 -0.06,38.23c-36.42667,-0.10667 -72.83,-0.10667 -109.21,0v57.81c32.44,0.06 64.91333,0.08 97.42,0.06v36.86c-32.49,0 -65,-0.06 -97.42,0v76.24c36.39,0.11 72.83,0 109.27,0.06v38.17h-151.39zM1662.69,382.25c34.17,0.31 68.35,-0.32 102.47,0.21c29,0.73 59.66,17.43 68,46.7c7.48,25.44 5.69,55.61 -10.64,77.35c-10,13 -26.22,17.91 -41.38,22.07c29.58667,33.42667 58.95,67.09333 88.09,101c-16.66667,0.32 -33.27,0.32 -49.81,0c-28.23,-33.54 -57,-66.61 -85.36,-99.94c-9.37,0.06 -18.69,0.06 -28,0.06c-0.1,33.33 -0.05,66.66 -0.05,100c-14.48,0.04667 -28.96,0.04667 -43.44,0v-247.53M1706.01,419.17c-0.1,24.54 -0.05,49.08 0,73.61c22.49,-1.26 46,3.53 67.77,-3.47c26.91,-10.8 27.49,-54 1,-65.51c-21.78,-8.33 -45.85,-3.43 -68.65,-4.59"></path></g></g></g></svg>