<svg fill="#FFFFFF" xmlns="http://www.w3.org/2000/svg"  viewBox="0 0 50 50" width="50px" height="50px"><path d="M 25 2 C 12.316406 2 2 12.316406 2 25 C 2 37.683594 12.316406 48 25 48 C 37.683594 48 48 37.683594 48 25 C 48 12.316406 37.683594 2 25 2 Z M 25 12 C 33.859375 12 41.496094 17.324219 45 25 C 41.496094 32.675781 33.859375 38 25 38 C 16.140625 38 8.503906 32.675781 5 25 C 8.503906 17.324219 16.140625 12 25 12 Z M 25 14 C 18.933594 14 14 18.933594 14 25 C 14 31.066406 18.933594 36 25 36 C 31.066406 36 36 31.066406 36 25 C 36 18.933594 31.066406 14 25 14 Z"/></svg>