<?xml version="1.0" encoding="UTF-8" standalone="no"?>
<svg
   xmlns:dc="http://purl.org/dc/elements/1.1/"
   xmlns:cc="http://creativecommons.org/ns#"
   xmlns:rdf="http://www.w3.org/1999/02/22-rdf-syntax-ns#"
   xmlns:svg="http://www.w3.org/2000/svg"
   xmlns="http://www.w3.org/2000/svg"
   xmlns:sodipodi="http://sodipodi.sourceforge.net/DTD/sodipodi-0.dtd"
   xmlns:inkscape="http://www.inkscape.org/namespaces/inkscape"
   inkscape:version="1.0 (4035a4fb49, 2020-05-01)"
   sodipodi:docname="Chicago Sun-Times (2015-01-08).svg"
   id="svg2059"
   version="1.2"
   viewBox="0 0 300 45.101315"
   height="45.101315pt"
   width="300pt">
  <metadata
     id="metadata2063">
    <rdf:RDF>
      <cc:Work
         rdf:about="">
        <dc:format>image/svg+xml</dc:format>
        <dc:type
           rdf:resource="http://purl.org/dc/dcmitype/StillImage" />
        <dc:title></dc:title>
      </cc:Work>
    </rdf:RDF>
  </metadata>
  <sodipodi:namedview
     inkscape:current-layer="svg2059"
     inkscape:window-maximized="1"
     inkscape:window-y="-8"
     inkscape:window-x="-8"
     inkscape:cy="139.88724"
     inkscape:cx="246.18502"
     inkscape:zoom="1.9553022"
     fit-margin-bottom="0"
     fit-margin-right="0"
     fit-margin-left="0"
     fit-margin-top="0"
     showgrid="false"
     id="namedview2061"
     inkscape:window-height="837"
     inkscape:window-width="1600"
     inkscape:pageshadow="2"
     inkscape:pageopacity="0"
     guidetolerance="10"
     gridtolerance="10"
     objecttolerance="10"
     borderopacity="1"
     bordercolor="#666666"
     pagecolor="#ffffff" />
  <defs
     id="defs766" />
  <path
     style="fill:#cc112e;fill-opacity:1;fill-rule:nonzero;stroke:none;stroke-width:0.416655"
     d="M 0,45.101313 H 299.99999 V 0 H 0 Z m 0,0"
     id="path1026" />
  <path
     id="path2734"
     d="m 17.375986,33.177695 c 2.923098,0 4.537638,-0.54686 5.68344,-1.204396 l 0.136715,-4.537637 h -1.145802 l -0.820291,3.886613 c -0.742167,0.351553 -1.861928,0.598942 -3.52855,0.598942 -3.906144,0 -4.973823,-2.265564 -4.973823,-8.476333 0,-6.204258 1.204394,-8.333107 4.88919,-8.333107 1.725214,0 2.792893,0.188797 3.450427,0.54686 l 0.81378,3.333243 h 1.152313 L 22.89667,14.779755 c -1.178354,-0.54686 -2.597586,-0.872372 -5.195172,-0.872372 -6.288892,0 -8.853926,2.897057 -8.853926,9.537501 0,6.699039 2.317645,9.732811 8.528414,9.732811 z m 0,0"
     style="fill:#ffffff;fill-opacity:1;stroke:none;stroke-width:0.416655" />
  <path
     id="path2730"
     d="m 35.935954,33.014937 h 7.161264 v -1.119761 l -1.718704,-0.08463 v -16.48393 l 1.718704,-0.07812 v -1.126271 h -7.161264 v 1.126271 l 1.692662,0.07812 v 7.0571 h -7.896919 v -7.0571 l 1.692663,-0.07812 v -1.126271 h -7.135224 v 1.126271 l 1.725214,0.07812 v 16.48393 l -1.725214,0.08463 v 1.119761 h 7.135224 v -1.119761 l -1.692663,-0.08463 v -8.144312 h 7.896919 v 8.144312 l -1.692662,0.08463 z m 0,0"
     style="fill:#ffffff;fill-opacity:1;stroke:none;stroke-width:0.416655" />
  <path
     id="path2742"
     d="m 44.245045,33.014937 h 7.382612 v -1.119761 l -1.803339,-0.08463 v -16.48393 l 1.803339,-0.07812 v -1.126271 h -7.382612 v 1.126271 l 1.835888,0.07812 v 16.48393 l -1.835888,0.08463 z m 0,0"
     style="fill:#ffffff;fill-opacity:1;stroke:none;stroke-width:0.416655" />
  <path
     id="path2738"
     d="m 60.404498,33.177695 c 2.923096,0 4.537632,-0.54686 5.683442,-1.204396 l 0.13671,-4.537637 h -1.1458 l -0.82029,3.886613 c -0.742167,0.351553 -1.861929,0.598942 -3.52855,0.598942 -3.906144,0 -4.973823,-2.265564 -4.973823,-8.476333 0,-6.204258 1.204392,-8.333107 4.889188,-8.333107 1.725215,0 2.792895,0.188797 3.450425,0.54686 l 0.81378,3.333243 h 1.15231 l -0.13671,-4.212125 c -1.17835,-0.54686 -2.597586,-0.872372 -5.19517,-0.872372 -6.288892,0 -8.853926,2.897057 -8.853926,9.537501 0,6.699039 2.317645,9.732811 8.528414,9.732811 z m 0,0"
     style="fill:#ffffff;fill-opacity:1;stroke:none;stroke-width:0.416655" />
  <path
     id="path2750"
     d="m 67.07271,33.014937 h 4.7004 v -1.119761 l -1.82938,-0.162754 1.77729,-5.253766 h 6.20426 l 1.82938,5.331889 -1.91401,0.08463 v 1.119761 h 6.94643 v -1.119761 l -1.23044,-0.08463 -6.20426,-17.825039 h -2.81893 l -6.20426,17.746916 -1.25648,0.162754 z m 5.05846,-7.682083 2.70826,-7.955513 2.70175,7.955513 z m 0,0"
     style="fill:#ffffff;fill-opacity:1;stroke:none;stroke-width:0.416655" />
  <path
     id="path2746"
     d="m 92.52173,33.177695 c 3.33976,0 5.14309,-0.325512 6.39957,-0.598942 v -7.382614 l 1.36715,-0.110674 v -1.061169 h -6.56232 v 1.061169 l 1.80334,0.110674 v 6.536283 c -0.65754,0.136713 -1.3932,0.188795 -2.62363,0.188795 -4.26421,0 -5.03242,-2.538994 -5.03242,-8.476333 0,-5.904787 0.79425,-8.333107 5.0845,-8.333107 1.83589,0 2.92961,0.214838 3.61318,0.514309 l 0.89842,3.365794 h 1.11976 l -0.10417,-4.212125 c -1.17835,-0.520819 -2.68221,-0.872372 -5.39047,-0.872372 -6.47769,0 -9.04273,2.844975 -9.04273,9.537501 0,6.946429 2.07677,9.732811 8.46982,9.732811 z m 0,0"
     style="fill:#ffffff;fill-opacity:1;stroke:none;stroke-width:0.416655" />
  <path
     id="path2758"
     d="m 109.90691,33.177695 c 5.96338,0 8.97111,-3.46996 8.97111,-9.784892 0,-6.2303 -3.03377,-9.48542 -8.91252,-9.48542 -5.93082,0 -8.9646,3.391835 -8.9646,9.706768 0,6.230301 3.05982,9.563544 8.90601,9.563544 z m 0.0846,-1.204396 c -4.15353,0 -5.16913,-2.923098 -5.16913,-8.469822 0,-5.442561 0.98956,-8.424251 5.05846,-8.424251 4.21212,0 5.16913,2.844975 5.16913,8.365658 0,5.468602 -0.98305,8.528415 -5.05846,8.528415 z m 0,0"
     style="fill:#ffffff;fill-opacity:1;stroke:none;stroke-width:0.416655" />
  <path
     id="path2754"
     d="m 130.25049,33.177695 c 6.11962,0 7.29797,-2.512952 7.29797,-5.631359 0,-4.34233 -2.05072,-4.999865 -5.79411,-5.95687 -2.81893,-0.742167 -4.02333,-1.041638 -4.02333,-3.365794 0,-2.265563 0.85284,-3.085854 3.50251,-3.085854 1.28252,0 2.78638,0.214838 3.496,0.572901 l 0.79425,3.281161 h 1.11976 l -0.10416,-4.127492 c -1.0156,-0.572901 -2.98169,-0.957005 -5.22773,-0.957005 -4.81106,0 -7.07663,1.445273 -7.07663,5.195171 0,4.101452 2.12885,4.700394 5.68344,5.631358 3.00773,0.761698 4.16005,1.282517 4.16005,3.691306 0,2.565037 -0.90493,3.495999 -3.7499,3.495999 -1.66662,0 -3.3072,-0.247389 -4.45301,-0.735655 l -0.7682,-3.7499 h -1.11977 l 0.11068,4.511596 c 1.36715,0.709618 3.8801,1.230437 6.15218,1.230437 z m 0,0"
     style="fill:#ffffff;fill-opacity:1;stroke:none;stroke-width:0.416655" />
  <path
     id="path2770"
     d="m 146.67904,33.177695 c 5.84619,0 6.69903,-2.70826 6.69903,-5.38397 V 15.352656 l 1.3932,-0.104164 v -1.126271 h -4.53764 v 1.126271 l 1.55595,0.104164 v 12.766581 c 0,1.91401 -0.76821,3.665267 -4.40093,3.665267 -3.99077,0 -4.62227,-1.393191 -4.62227,-3.665267 V 15.326615 l 1.83589,-0.07812 v -1.126271 h -6.99851 v 1.126271 l 1.41924,0.07812 v 12.441069 c 0,3.281161 1.17835,5.410011 7.65604,5.410011 z m 0,0"
     style="fill:#ffffff;fill-opacity:1;stroke:none;stroke-width:0.416655" />
  <path
     id="path2766"
     d="m 168.81791,33.125613 h 2.40879 V 15.385207 l 1.5885,-0.136715 v -1.126271 h -4.8957 v 1.126271 l 1.77729,0.136715 v 12.161129 l -8.33962,-13.424115 h -6.0415 v 1.126271 l 1.72521,0.07812 V 31.75846 l -1.72521,0.136713 v 1.119761 h 5.05846 V 31.895173 L 158.57079,31.75846 V 16.34221 Z m 0,0"
     style="fill:#ffffff;fill-opacity:1;stroke:none;stroke-width:0.416655" />
  <path
     id="path2762"
     d="m 173.797,24.161011 h 7.76021 V 22.461838 H 173.797 Z m 0,0"
     style="fill:#ffffff;fill-opacity:1;stroke:none;stroke-width:0.416655" />
  <path
     id="path2786"
     d="m 183.58429,33.014937 h 7.73417 v -1.119761 l -1.9661,-0.110672 V 15.248492 h 4.10146 l 0.84633,3.743388 h 1.11976 l -0.13672,-4.869659 h -15.66364 l -0.13671,4.869659 h 1.11976 l 0.84633,-3.743388 h 4.10145 v 16.536012 l -1.96609,0.110672 z m 0,0"
     style="fill:#ffffff;fill-opacity:1;stroke:none;stroke-width:0.416655" />
  <path
     id="path2782"
     d="m 196.53994,33.014937 h 7.38261 v -1.119761 l -1.80334,-0.08463 v -16.48393 l 1.80334,-0.07812 v -1.126271 h -7.38261 v 1.126271 l 1.83588,0.07812 v 16.48393 l -1.83588,0.08463 z m 0,0"
     style="fill:#ffffff;fill-opacity:1;stroke:none;stroke-width:0.416655" />
  <path
     id="path2778"
     d="m 214.22903,33.177695 h 2.10281 L 222.1585,16.25758 v 15.552965 l -1.69917,0.08463 v 1.119761 h 7.0571 v -1.119761 l -1.67313,-0.08463 v -16.48393 l 1.67313,-0.07812 v -1.126271 h -6.15218 l -5.03241,14.439712 -4.97382,-14.439712 h -6.28889 v 1.126271 l 1.72521,0.07812 v 16.431848 l -1.72521,0.136713 v 1.119761 h 5.03241 v -1.119761 l -1.72521,-0.136713 V 16.205498 Z m 0,0"
     style="fill:#ffffff;fill-opacity:1;stroke:none;stroke-width:0.416655" />
  <path
     id="path2774"
     d="m 237.57363,26.179185 h 1.1458 v -6.314933 h -1.1458 l -0.13671,2.519463 h -3.33325 v -7.167774 h 6.09359 l 0.84633,3.775939 h 1.11976 l -0.13672,-4.869659 h -13.36552 v 1.126271 l 1.72522,0.07812 v 16.48393 l -1.72522,0.08463 v 1.119761 h 13.56083 l 0.11068,-5.579275 h -1.11976 l -0.82029,4.511596 h -6.2889 v -8.443781 h 3.33325 z m 0,0"
     style="fill:#ffffff;fill-opacity:1;stroke:none;stroke-width:0.416655" />
  <path
     id="path2790"
     d="m 249.68616,33.177695 c 6.11963,0 7.29798,-2.512952 7.29798,-5.631359 0,-4.34233 -2.05072,-4.999865 -5.79411,-5.95687 -2.81893,-0.742167 -4.02333,-1.041638 -4.02333,-3.365794 0,-2.265563 0.85284,-3.085854 3.50251,-3.085854 1.28252,0 2.78638,0.214838 3.496,0.572901 l 0.79425,3.281161 h 1.11976 l -0.10416,-4.127492 c -1.0156,-0.572901 -2.98169,-0.957005 -5.22773,-0.957005 -4.81106,0 -7.07663,1.445273 -7.07663,5.195171 0,4.101452 2.12885,4.700394 5.68344,5.631358 3.00773,0.761698 4.16005,1.282517 4.16005,3.691306 0,2.565037 -0.90493,3.495999 -3.7499,3.495999 -1.66662,0 -3.3072,-0.247389 -4.45301,-0.735655 l -0.76821,-3.7499 h -1.11976 l 0.11068,4.511596 c 1.36715,0.709618 3.8801,1.230437 6.15217,1.230437 z m 0,0"
     style="fill:#ffffff;fill-opacity:1;stroke:none;stroke-width:0.416655" />
  <path
     id="path2798"
     d="m 265.78507,33.119101 c 1.82287,0 2.72779,-0.384102 3.1119,-2.591075 h -0.80076 c -0.27994,1.406211 -0.50129,1.790318 -2.10281,1.790318 -1.63407,0 -1.82938,-0.553373 -1.44527,-3.372307 0.40363,-2.799403 0.85284,-3.287671 2.17442,-3.287671 0.40363,0 0.82029,0.0651 1.00908,0.169266 -0.18879,0.299471 -0.34504,0.631494 -0.41665,1.0807 -0.10417,0.748678 0.15624,1.041638 0.93747,1.041638 0.61196,0 0.87237,-0.117184 0.99607,-1.041638 0.13671,-1.249966 -0.52733,-1.998644 -2.91008,-1.998644 -2.15489,0 -3.68479,0.781229 -4.12098,3.880103 -0.46874,3.320225 0.74868,4.32931 3.56761,4.32931 z m 0,0"
     style="fill:#ffffff;fill-opacity:1;stroke:none;stroke-width:0.416655" />
  <path
     id="path2794"
     d="m 273.26544,33.119101 c 2.43483,0 3.94521,-0.924454 4.36186,-3.893123 0.42317,-2.994711 -0.81378,-4.31629 -3.61318,-4.31629 -2.40228,0 -3.91266,0.917944 -4.33582,3.893124 -0.41665,2.994712 0.80076,4.316289 3.58714,4.316289 z m -0.039,-0.781229 c -1.38668,0 -1.61454,-0.729147 -1.24997,-3.359284 0.38411,-2.623626 0.80077,-3.307201 2.07026,-3.307201 1.39319,0 1.6536,0.748677 1.2695,3.378814 -0.36457,2.623627 -0.80076,3.287671 -2.08979,3.287671 z m 0,0"
     style="fill:#ffffff;fill-opacity:1;stroke:none;stroke-width:0.416655" />
  <path
     id="path2802"
     d="m 277.89338,33.014937 h 2.17442 l 0.59243,-4.160043 c 0.24088,-1.718704 0.65754,-2.884036 2.01818,-2.884036 0.91794,0 0.97002,0.332022 0.83331,1.113251 l -1.00909,5.930828 h 2.17442 l 0.70962,-4.173064 c 0.36457,-2.109317 0.82029,-2.871015 1.98562,-2.871015 0.90492,0 0.93748,0.332022 0.82029,1.113251 l -0.64451,3.671777 c -0.20833,1.282515 -0.14323,2.330666 1.77078,2.330666 1.47783,0 1.86193,-0.227861 2.07026,-2.298117 h -0.65753 c -0.19531,1.458294 -0.27995,1.510376 -0.78775,1.510376 -0.4492,0 -0.4492,-0.292959 -0.26041,-1.321577 l 0.59244,-3.391837 c 0.31249,-1.738234 0.0911,-2.675709 -1.99865,-2.675709 -1.39319,0 -2.12234,0.488268 -2.6106,1.302048 -0.1237,-0.81378 -0.67707,-1.302048 -2.08979,-1.302048 -1.40621,0 -2.13536,0.501289 -2.6041,1.35413 l 0.013,-1.178353 h -2.7994 l -0.10416,0.742167 0.80076,0.05208 z m 0,0"
     style="fill:#ffffff;fill-opacity:1;stroke:none;stroke-width:0.416655" />
  <path
     id="path2806"
     d="m 259.91934,30.401779 -0.52081,-2.525973 c -0.007,-0.02604 -0.0195,-0.175777 -0.0716,-0.175777 -0.0781,0 -0.0716,0.09114 -0.0781,0.149736 l -0.54686,2.552014 -2.38926,-0.833311 c -0.013,0 -0.12369,-0.03904 -0.14322,-0.03904 -0.039,0 -0.0521,0.01954 -0.0521,0.0651 0,0.03904 0.0716,0.07162 0.10417,0.09766 l 1.95958,1.69917 -1.88797,1.660114 c -0.013,0.0065 -0.13671,0.09114 -0.13671,0.130204 0,0.104164 0.14322,0.03254 0.1888,0.013 l 2.3567,-0.787741 0.51431,2.473891 c 0.013,0.03904 0.013,0.182287 0.0911,0.182287 0.0846,0 0.0716,-0.09114 0.0911,-0.156246 l 0.52081,-2.499932 2.33718,0.787741 c 0.026,0.0065 0.11719,0.04557 0.14974,0.04557 0.0325,0 0.0651,-0.01954 0.0651,-0.04557 0,-0.04557 -0.0976,-0.09766 -0.11719,-0.117184 l -1.90749,-1.686155 1.95307,-1.679641 c 0.0195,-0.01954 0.11718,-0.09114 0.11718,-0.117185 0,-0.117184 -0.14322,-0.03254 -0.18228,-0.02604 z m 0,0"
     style="fill:#8cd9e6;fill-opacity:1;stroke:none;stroke-width:0.416655" />
</svg>
