<svg version="1.1" xmlns="http://www.w3.org/2000/svg" xmlns:xlink="http://www.w3.org/1999/xlink" width="50px" height="50px" viewBox="0,0,256,256"><g fill-opacity="0" fill="#ffffff" fill-rule="nonzero" stroke="none" stroke-width="1" stroke-linecap="butt" stroke-linejoin="miter" stroke-miterlimit="10" stroke-dasharray="" stroke-dashoffset="0" font-family="none" font-weight="none" font-size="none" text-anchor="none" style="mix-blend-mode: normal"><path d="M0,256v-256h256v256z" id="bgRectangle"></path></g><g fill="none" fill-rule="nonzero" stroke="none" stroke-width="none" stroke-linecap="butt" stroke-linejoin="none" stroke-miterlimit="10" stroke-dasharray="" stroke-dashoffset="0" font-family="none" font-weight="none" font-size="none" text-anchor="none" style="mix-blend-mode: normal"><path transform="translate(-0.02444,-0.17226) scale(5.12,5.12)" d="M37.95703,6.07422c6.30327,4.10446 10.04297,11.49326 10.04297,18.92578c0,4.81739 -1.56059,9.70491 -4.38477,13.67969c-0.00194,0.00196 -0.0039,0.00391 -0.00586,0.00586c-4.40724,6.08619 -11.90171,9.62453 -19.43945,9.31445c-0.0013,-0.00004 -0.00261,0.00004 -0.00391,0c-7.12789,-0.21093 -13.99574,-3.95477 -17.98633,-9.82812c-4.19096,-5.87399 -5.33338,-13.77584 -2.92383,-20.5957c2.20604,-6.70918 7.71424,-12.22198 14.43555,-14.32617c1.67332,-0.57381 3.40691,-0.94115 5.16016,-1.10352c0.65886,-0.06102 1.32086,-0.09395 1.98242,-0.09766c4.63096,-0.02595 9.27063,1.34641 13.12305,4.02539z" id="strokeMainSVG" fill="#020202" stroke="#020202" stroke-width="2" stroke-linejoin="round"></path><g transform="translate(-0.02444,-0.17226) scale(5.12,5.12)" fill="#ffffff" stroke="none" stroke-width="1" stroke-linejoin="miter"><path d="M24.83398,2.04883c-0.66156,0.00371 -1.32356,0.03664 -1.98242,0.09766c-1.75324,0.16236 -3.48683,0.52971 -5.16016,1.10352c-6.7213,2.10419 -12.22951,7.61699 -14.43555,14.32617c-2.40955,6.81986 -1.26713,14.72171 2.92383,20.5957c3.99059,5.87336 10.85844,9.6172 17.98633,9.82813c0.0013,0.00004 0.00261,-0.00004 0.00391,0c7.53774,0.31008 15.03221,-3.22826 19.43945,-9.31445c0.00196,-0.00194 0.00391,-0.0039 0.00586,-0.00586c2.82418,-3.97478 4.38477,-8.8623 4.38477,-13.67969c0,-7.43253 -3.7397,-14.82132 -10.04297,-18.92578c-3.85241,-2.67898 -8.49209,-4.05134 -13.12305,-4.02539zM26,5h2l3,1v2l-3,-2zM17.69141,5.36523l1.30859,0.73438l4,-0.09961l1.59961,0.80078l0.20117,-0.5l1.19922,0.79883l-0.09961,0.30078l1.09961,0.59961l1,1l1,1l2,2l-3,2l-4,4l0.5,1l-1.5,-1h-1l-3,1v5h1l2,-1v2h2v1l2,1l2,-1l4,-0.09961l1,1.09961l2,1l1,1l3.5,1l0.5,2l-1,2l-1,3l-2,1l-8.90039,7l0.74219,0.82227c-0.05259,0.00713 -0.10555,0.0128 -0.1582,0.01953l-1.68359,-0.8418l3,-8l-0.69922,-1l-2.30078,-1l-1,-3v-2l1,-1v-1.30078l-2,-0.69922l-1,-1l-5,-2l-2,-1l-2,-6v-4l1,-2v-3l-1.33203,-0.66602c1.26528,-0.80964 2.61433,-1.47362 4.02344,-1.96875zM43.00781,14.23438c1.92347,3.24219 2.99219,7.00909 2.99219,10.76563l-2,-4l-0.90039,-5zM26,22l3,1l-0.5,0.5l-3.19922,-1.30078z"></path></g></g></svg>