<svg xmlns="http://www.w3.org/2000/svg" xmlns:xlink="http://www.w3.org/1999/xlink" viewBox="0,0,256,256" width="50px" height="50px"><g fill="#ffffff" fill-rule="nonzero" stroke="none" stroke-width="1" stroke-linecap="butt" stroke-linejoin="miter" stroke-miterlimit="10" stroke-dasharray="" stroke-dashoffset="0" font-family="none" font-weight="none" font-size="none" text-anchor="none" style="mix-blend-mode: normal"><g transform="scale(5.12,5.12)"><path d="M25.08008,2c-12.6907,0 -23,10.3093 -23,23c0,12.69071 10.30929,23 23,23c12.69071,0 23,-10.30929 23,-23c0,-12.6907 -10.30929,-23 -23,-23zM25.08008,4c11.60983,0 21,9.39018 21,21c0,11.60982 -9.39017,21 -21,21c-11.60982,0 -21,-9.39018 -21,-21c0,-11.60982 9.39018,-21 21,-21zM24.08008,6.13281c-2.592,0.638 -4.8857,3.70831 -6.3457,8.07031c2.013,0.412 4.1507,0.65394 6.3457,0.71094zM26.08008,6.13281v8.78125c2.217,-0.056 4.35556,-0.29131 6.35156,-0.69531c-1.46,-4.37 -3.75756,-7.44794 -6.35156,-8.08594zM19.49805,6.83984c-3.206,0.987 -6.03839,2.81212 -8.27539,5.20313c1.361,0.677 2.88911,1.24241 4.53711,1.69141c0.933,-2.847 2.21228,-5.20853 3.73828,-6.89453zM30.66211,6.83984c1.529,1.689 2.81114,4.05811 3.74414,6.91211c1.663,-0.453 3.19034,-1.02684 4.52734,-1.71484c-2.236,-2.389 -5.06849,-4.21127 -8.27148,-5.19727zM40.24219,13.59961c-1.546,0.839 -3.3272,1.53336 -5.2832,2.06836c0.641,2.519 1.0247,5.33203 1.0957,8.33203h7.97461c-0.204,-3.892 -1.57911,-7.47139 -3.78711,-10.40039zM9.9082,13.61133c-2.203,2.927 -3.57334,6.50167 -3.77734,10.38867h7.97461c0.071,-3.006 0.45561,-5.82466 1.09961,-8.34766c-1.938,-0.53 -3.72387,-1.21602 -5.29687,-2.04102zM17.16211,16.12305c-0.615,2.385 -0.98364,5.06295 -1.05664,7.87695h7.97461v-7.08594c-2.388,-0.06 -4.72197,-0.33001 -6.91797,-0.79102zM33,16.13867c-2.178,0.453 -4.50992,0.71739 -6.91992,0.77539v7.08594h7.97461c-0.073,-2.808 -0.44169,-5.48033 -1.05469,-7.86133zM6.13086,26c0.204,3.892 1.57911,7.47139 3.78711,10.40039c1.546,-0.839 3.3272,-1.53336 5.2832,-2.06836c-0.641,-2.519 -1.0247,-5.33203 -1.0957,-8.33203zM16.10547,26c0.073,2.808 0.44169,5.48033 1.05469,7.86133c2.178,-0.453 4.50992,-0.71739 6.91992,-0.77539v-7.08594zM26.08008,26v7.08594c2.388,0.06 4.72002,0.33002 6.91602,0.79102c0.615,-2.385 0.98559,-5.06295 1.05859,-7.87695zM36.05469,26c-0.071,3.006 -0.45561,5.82466 -1.09961,8.34766c1.938,0.53 3.72387,1.21602 5.29688,2.04102c2.203,-2.927 3.57334,-6.50167 3.77734,-10.38867zM24.08008,35.08594c-2.217,0.056 -4.35556,0.29131 -6.35156,0.69531c1.46,4.37 3.75756,7.44794 6.35156,8.08594zM26.08008,35.08594v8.78125c2.592,-0.638 4.8857,-3.70831 6.3457,-8.07031c-2.013,-0.412 -4.1507,-0.65394 -6.3457,-0.71094zM15.75391,36.24805c-1.663,0.453 -3.19034,1.02684 -4.52734,1.71484c2.236,2.389 5.06849,4.21127 8.27149,5.19727c-1.529,-1.689 -2.81114,-4.05811 -3.74414,-6.91211zM34.40039,36.26563c-0.933,2.847 -2.21424,5.20853 -3.74023,6.89453c3.206,-0.987 6.04034,-2.81213 8.27734,-5.20312c-1.361,-0.677 -2.88911,-1.24241 -4.53711,-1.69141z"></path></g></g></svg>