<svg xmlns="http://www.w3.org/2000/svg" xmlns:xlink="http://www.w3.org/1999/xlink" viewBox="0,0,256,256" width="100%" height="100%" fill-rule="nonzero"><g fill="#374151" fill-rule="nonzero" stroke="none" stroke-width="1" stroke-linecap="butt" stroke-linejoin="miter" stroke-miterlimit="10" stroke-dasharray="" stroke-dashoffset="0" font-family="none" font-weight="none" font-size="none" text-anchor="none" style="mix-blend-mode: normal"><path d="M0,256v-256h256v256z" id="bgRectangle"></path></g><g fill="#ffffff" fill-rule="nonzero" stroke="none" stroke-width="1" stroke-linecap="butt" stroke-linejoin="miter" stroke-miterlimit="10" stroke-dasharray="" stroke-dashoffset="0" font-family="none" font-weight="none" font-size="none" text-anchor="none" style="mix-blend-mode: normal"><g transform="scale(2,2)"><path d="M64,1c-34.74,0 -63,28.26 -63,63c0,12.01 3.39055,23.68953 9.81055,33.76953c0.89,1.4 2.73867,1.80992 4.13867,0.91992c1.4,-0.89 1.80992,-2.73867 0.91992,-4.13867c-5.8,-9.12 -8.86914,-19.69078 -8.86914,-30.55078c0,-31.43 25.57,-57 57,-57c31.43,0 57,25.57 57,57c0,10.96 -3.11953,21.60906 -9.01953,30.78906c-0.9,1.39 -0.48961,3.25039 0.90039,4.15039c0.5,0.32 1.05914,0.48047 1.61914,0.48047c0.99,0 1.9493,-0.49086 2.5293,-1.38086c6.52,-10.15 9.9707,-21.91906 9.9707,-34.03906c0,-34.74 -28.26,-63 -63,-63zM64,31c-12.68,0 -23,10.32 -23,23c0,12.68 10.32,23 23,23c12.68,0 23,-10.32 23,-23c0,-12.68 -10.32,-23 -23,-23zM64,37c9.37,0 17,7.63 17,17c0,9.37 -7.63,17 -17,17c-9.37,0 -17,-7.63 -17,-17c0,-9.37 7.63,-17 17,-17zM64,88.59766c-15.255,0 -30.50914,5.80688 -42.11914,17.42187c-0.04,0.04 -0.07156,0.07133 -0.10156,0.11133l-0.28906,0.31836c-1.11,1.23 -1.02102,3.12023 0.20898,4.24023c11.6,10.52 26.62078,16.31055 42.30078,16.31055c15.68,0 30.70078,-5.79031 42.30078,-16.32031c1.23,-1.11 1.31899,-3.01024 0.20899,-4.24024l-0.15039,-0.15039c-0.07,-0.09 -0.16024,-0.18953 -0.24024,-0.26953c-11.61,-11.615 -26.86414,-17.42187 -42.11914,-17.42187zM64,94.59766c12.8425,0 25.68484,4.57742 35.83984,13.73242c-10.12,8.19 -22.72984,12.66992 -35.83984,12.66992c-13.11,0 -25.71984,-4.47992 -35.83984,-12.66992c10.155,-9.155 22.99734,-13.73242 35.83984,-13.73242z"></path></g></g></svg>