<svg className = "text-white box-border" xmlns="http://www.w3.org/2000/svg" viewBox="0 0 48 48" width="100%" height="100%">
  <path d="M 7 11 A 3 3 0 0 0 7 17 A 3 3 0 0 0 7 11 z M 16 12 A 2.0002 2.0002 0 1 0 16 16 L 42 16 A 2.0002 2.0002 0 1 0 42 12 L 16 12 z M 7 21 A 3 3 0 0 0 7 27 A 3 3 0 0 0 7 21 z M 16 22 A 2.0002 2.0002 0 1 0 16 26 L 42 26 A 2.0002 2.0002 0 1 0 42 22 L 16 22 z M 7 31 A 3 3 0 0 0 7 37 A 3 3 0 0 0 7 31 z M 16 32 A 2.0002 2.0002 0 1 0 16 36 L 42 36 A 2.0002 2.0002 0 1 0 42 32 L 16 32 z" fill="currentColor" />
</svg>