<svg xmlns="http://www.w3.org/2000/svg" viewBox="0 0 48 48" width="100%" height="100%">
  <path d="M 7.484375 5.984375 A 1.50015 1.50015 0 0 0 6.4394531 8.5605469 L 16.878906 19 L 10.5 19 A 1.50015 1.50015 0 1 0 10.5 22 L 20.5 22 A 1.50015 1.50015 0 0 0 22 20.5 L 22 10.5 A 1.50015 1.50015 0 1 0 19 10.5 L 19 16.878906 L 8.5605469 6.4394531 A 1.50015 1.50015 0 0 0 7.484375 5.984375 z M 40.470703 5.9863281 A 1.50015 1.50015 0 0 0 39.439453 6.4394531 L 29 16.878906 L 29 10.5 A 1.50015 1.50015 0 1 0 26 10.5 L 26 20.5 A 1.50015 1.50015 0 0 0 27.5 22 L 37.5 22 A 1.50015 1.50015 0 1 0 37.5 19 L 31.121094 19 L 41.560547 8.5605469 A 1.50015 1.50015 0 0 0 40.470703 5.9863281 z M 10.5 26 A 1.50015 1.50015 0 1 0 10.5 29 L 16.878906 29 L 6.4394531 39.439453 A 1.50015 1.50015 0 1 0 8.5605469 41.560547 L 19 31.121094 L 19 37.5 A 1.50015 1.50015 0 1 0 22 37.5 L 22 27.5 A 1.50015 1.50015 0 0 0 20.5 26 L 10.5 26 z M 27.5 26 A 1.50015 1.50015 0 0 0 26 27.5 L 26 37.5 A 1.50015 1.50015 0 1 0 29 37.5 L 29 31.121094 L 39.439453 41.560547 A 1.50015 1.50015 0 1 0 41.560547 39.439453 L 31.121094 29 L 37.5 29 A 1.50015 1.50015 0 1 0 37.5 26 L 27.5 26 z" fill="currentColor" />
</svg>