<svg xmlns="http://www.w3.org/2000/svg" viewBox="0 0 48 48" width="48px" height="48px">
  <path d="M 7.484375 5.984375 A 1.50015 1.50015 0 0 0 6 7.6914062 L 6 16.5 A 1.50015 1.50015 0 1 0 9 16.5 L 9 11.121094 L 18.439453 20.560547 A 1.50015 1.50015 0 1 0 20.560547 18.439453 L 11.121094 9 L 16.5 9 A 1.50015 1.50015 0 1 0 16.5 6 L 7.6894531 6 A 1.50015 1.50015 0 0 0 7.484375 5.984375 z M 40.470703 5.9863281 A 1.50015 1.50015 0 0 0 40.308594 6 L 31.5 6 A 1.50015 1.50015 0 1 0 31.5 9 L 36.878906 9 L 27.439453 18.439453 A 1.50015 1.50015 0 1 0 29.560547 20.560547 L 39 11.121094 L 39 16.5 A 1.50015 1.50015 0 1 0 42 16.5 L 42 7.6894531 A 1.50015 1.50015 0 0 0 40.470703 5.9863281 z M 28.484375 26.984375 A 1.50015 1.50015 0 0 0 27.439453 29.560547 L 36.878906 39 L 31.5 39 A 1.50015 1.50015 0 1 0 31.5 42 L 40.310547 42 A 1.50015 1.50015 0 0 0 42 40.308594 L 42 31.5 A 1.50015 1.50015 0 1 0 39 31.5 L 39 36.878906 L 29.560547 27.439453 A 1.50015 1.50015 0 0 0 28.484375 26.984375 z M 19.470703 26.986328 A 1.50015 1.50015 0 0 0 18.439453 27.439453 L 9 36.878906 L 9 31.5 A 1.50015 1.50015 0 1 0 6 31.5 L 6 40.310547 A 1.50015 1.50015 0 0 0 7.6914062 42 L 16.5 42 A 1.50015 1.50015 0 1 0 16.5 39 L 11.121094 39 L 20.560547 29.560547 A 1.50015 1.50015 0 0 0 19.470703 26.986328 z" fill="currentColor" />
</svg>