<svg xmlns="http://www.w3.org/2000/svg" xmlnsXlink="http://www.w3.org/1999/xlink" viewBox="0,0,256,256" width="50px" height="50px" fillRule="nonzero"><g fill="#ffffff" fillRule="nonzero" stroke="none" strokeWidth={1} strokeLinecap="butt" strokeLinejoin="miter" strokeMiterlimit={10} strokeDasharray strokeDashoffset={0} fontFamily="none" fontWeight="none" fontSize="none" textAnchor="none" style={{mixBlendMode: 'normal'}}><g transform="scale(5.12,5.12)"><path d="M24,2c-12.6875,0 -21,9.22656 -21,19.40625c0,4.80469 1.86719,8.59766 3.625,12.03125c1.75781,3.43359 3.375,6.49219 3.375,9.96875v4.59375h2v-4.59375c0,-4.09375 -1.88281,-7.46875 -3.625,-10.875c-1.74219,-3.40625 -3.375,-6.83594 -3.375,-11.125c0,-9.10156 7.26563,-17.40625 19,-17.40625c6.20703,0 10.24609,2.01953 12.9375,5.03125c2.69141,3.01172 4.03516,7.10938 4.53125,11.28125l0.03125,0.1875l0.09375,0.1875l4.1875,7.53125c0.375,0.67969 0.08984,1.48047 -0.625,1.78125l-2.53125,1.0625l-0.625,0.28125v5.53125c0,3.38672 -2.73828,6.125 -6.125,6.125h-3.875v5h2v-3h1.875c4.46875,0 8.125,-3.65625 8.125,-8.125v-4.21875l1.9375,-0.8125c1.78125,-0.75 2.53125,-2.90234 1.59375,-4.59375l-4.125,-7.40625c-0.55078,-4.37109 -1.98437,-8.78516 -5,-12.15625c-3.06641,-3.42969 -7.75391,-5.6875 -14.40625,-5.6875zM24,13c-5.51172,0 -10,4.48828 -10,10c0,3.71484 2.04688,6.93359 5.0625,8.65625c0.50781,0.93359 0.90234,1.85938 0.9375,3.15625c-0.00781,0.0625 -0.00781,0.125 0,0.1875c0,0.03125 0,0.0625 0,0.09375v1.90625c0,1.37109 0.95313,2.52344 2.21875,2.875c0.32422,0.66406 0.99219,1.125 1.78125,1.125c0.78906,0 1.45703,-0.46094 1.78125,-1.125c1.26563,-0.35156 2.21875,-1.50391 2.21875,-2.875v-1.84375c0.00391,-0.05078 0.00391,-0.10547 0,-0.15625c0,-0.03125 0,-0.0625 0,-0.09375c0.01953,-1.39453 0.42188,-2.33203 0.96875,-3.3125c2.98438,-1.73047 5.03125,-4.90234 5.03125,-8.59375c0,-5.51172 -4.48828,-10 -10,-10zM24,15c4.42969,0 8,3.57031 8,8c0,3.08984 -1.73047,5.75781 -4.28125,7.09375c-0.16797,0.08594 -0.30859,0.21484 -0.40625,0.375c-0.52734,0.93359 -0.97266,2.12891 -1.15625,3.53125h-4.3125c-0.17969,-1.38672 -0.60547,-2.56641 -1.125,-3.5c-0.09375,-0.17187 -0.23437,-0.3125 -0.40625,-0.40625c-2.5625,-1.33594 -4.3125,-4 -4.3125,-7.09375c0,-4.42969 3.57031,-8 8,-8zM21.5,22c-0.82812,0 -1.5,0.67188 -1.5,1.5c0,0.82813 0.67188,1.5 1.5,1.5c0.51953,0 0.98047,-0.25781 1.25,-0.65625c0.15234,0.17578 0.25,0.39844 0.25,0.65625v7h2v-7c0,-0.25781 0.09766,-0.48047 0.25,-0.65625c0.26953,0.39844 0.73047,0.65625 1.25,0.65625c0.82813,0 1.5,-0.67187 1.5,-1.5c0,-0.82812 -0.67187,-1.5 -1.5,-1.5h-0.5c-0.76562,0 -1.46875,0.30078 -2,0.78125c-0.53125,-0.48047 -1.23437,-0.78125 -2,-0.78125zM22,36h4v1c0,0.56641 -0.43359,1 -1,1h-2c-0.56641,0 -1,-0.43359 -1,-1z" /></g></g></svg>
