<svg xmlns="http://www.w3.org/2000/svg" viewBox="0 0 48 48" width="28px" height="28px">
  <path d="M 37.5 5 C 36.125 5 34.903815 5.5696334 34.128906 6.4414062 C 33.714909 6.9071534 33.430016 7.4403854 33.246094 8 L 17.75 8 C 14.681103 8 11.975178 9.5968334 10.414062 12.003906 C 9.0746392 12.027374 7.8874266 12.58807 7.1289062 13.441406 C 6.3539974 14.313179 6 15.416667 6 16.5 C 6 17.583333 6.3539975 18.686821 7.1289062 19.558594 C 7.8293047 20.346542 8.8957663 20.883692 10.109375 20.980469 C 11.603714 23.671946 14.467726 25.5 17.75 25.5 L 30.25 25.5 C 32.003913 25.5 33.556145 26.284898 34.607422 27.511719 C 34.439568 27.648178 34.269229 27.783543 34.128906 27.941406 C 33.353997 28.813179 33 29.916667 33 31 C 33 32.083333 33.353997 33.186821 34.128906 34.058594 C 34.336814 34.29249 34.581147 34.500316 34.847656 34.685547 C 33.802065 36.084552 32.143721 37 30.25 37 L 14.753906 37 C 14.569984 36.440385 14.285091 35.907153 13.871094 35.441406 C 13.096185 34.569633 11.875 34 10.5 34 C 9.1250003 34 7.9038151 34.569633 7.1289062 35.441406 C 6.3539974 36.313179 6 37.416667 6 38.5 C 6 39.583333 6.3539975 40.686821 7.1289062 41.558594 C 7.9038151 42.430367 9.1250003 43 10.5 43 C 11.875 43 13.096185 42.430367 13.871094 41.558594 C 14.285091 41.092847 14.569984 40.559615 14.753906 40 L 30.25 40 C 33.532264 40 36.397324 38.172971 37.892578 35.480469 C 39.105385 35.383273 40.171067 34.846124 40.871094 34.058594 C 41.646003 33.186821 42 32.083333 42 31 C 42 29.916667 41.646003 28.813179 40.871094 27.941406 C 40.112573 27.08807 38.925361 26.527374 37.585938 26.503906 C 36.024821 24.096834 33.318897 22.5 30.25 22.5 L 17.75 22.5 C 15.856336 22.5 14.198805 21.585105 13.152344 20.185547 C 13.418853 20.000316 13.663186 19.79249 13.871094 19.558594 C 14.646003 18.686821 15 17.583333 15 16.5 C 15 15.416667 14.646003 14.313179 13.871094 13.441406 C 13.730771 13.283543 13.560432 13.148178 13.392578 13.011719 C 14.443855 11.784898 15.996087 11 17.75 11 L 33.246094 11 C 33.430016 11.559615 33.714909 12.092847 34.128906 12.558594 C 34.903815 13.430367 36.125 14 37.5 14 C 38.875 14 40.096185 13.430367 40.871094 12.558594 C 41.646003 11.686821 42 10.583333 42 9.5 C 42 8.4166668 41.646003 7.3131791 40.871094 6.4414062 C 40.096185 5.5696334 38.875 5 37.5 5 z M 37.5 8 C 38.124999 8 38.403816 8.1803665 38.628906 8.4335938 C 38.853997 8.6868209 39 9.0833332 39 9.5 C 39 9.9166668 38.853997 10.313179 38.628906 10.566406 C 38.403816 10.819633 38.124999 11 37.5 11 C 36.875001 11 36.596184 10.819633 36.371094 10.566406 C 36.17359 10.344215 36.042239 10.010032 36.011719 9.6503906 A 1.50015 1.50015 0 0 0 36.013672 9.3457031 C 36.044871 8.987616 36.174332 8.6549506 36.371094 8.4335938 C 36.596184 8.1803665 36.875001 8 37.5 8 z M 10.5 15 C 11.124999 15 11.403816 15.180367 11.628906 15.433594 C 11.853997 15.686821 12 16.083333 12 16.5 C 12 16.916667 11.853997 17.313179 11.628906 17.566406 C 11.403816 17.819633 11.124999 18 10.5 18 C 9.8750006 18 9.5961843 17.819633 9.3710938 17.566406 C 9.146003 17.313179 9 16.916667 9 16.5 C 9 16.083333 9.1460031 15.686821 9.3710938 15.433594 C 9.5961843 15.180367 9.8750006 15 10.5 15 z M 37.5 29.5 C 38.124999 29.5 38.403816 29.680367 38.628906 29.933594 C 38.853997 30.186821 39 30.583333 39 31 C 39 31.416667 38.853997 31.813179 38.628906 32.066406 C 38.403816 32.319633 38.124999 32.5 37.5 32.5 C 36.875001 32.5 36.596184 32.319633 36.371094 32.066406 C 36.146003 31.813179 36 31.416667 36 31 C 36 30.583333 36.146003 30.186821 36.371094 29.933594 C 36.596184 29.680367 36.875001 29.5 37.5 29.5 z M 10.5 37 C 11.124999 37 11.403816 37.180367 11.628906 37.433594 C 11.82641 37.655785 11.957761 37.989968 11.988281 38.349609 A 1.50015 1.50015 0 0 0 11.986328 38.654297 C 11.955129 39.012384 11.825668 39.345049 11.628906 39.566406 C 11.403816 39.819633 11.124999 40 10.5 40 C 9.8750006 40 9.5961843 39.819633 9.3710938 39.566406 C 9.146003 39.313179 9 38.916667 9 38.5 C 9 38.083333 9.1460031 37.686821 9.3710938 37.433594 C 9.5961843 37.180367 9.8750006 37 10.5 37 z" fill="#ffffff" />
</svg>