<svg xmlns="http://www.w3.org/2000/svg" xmlnsXlink="http://www.w3.org/1999/xlink" viewBox="0,0,256,256" width="50px" height="50px" fillRule="nonzero"><g fill="#ffffff" fillRule="nonzero" stroke="none" strokeWidth={1} strokeLinecap="butt" strokeLinejoin="miter" strokeMiterlimit={10} strokeDasharray strokeDashoffset={0} fontFamily="none" fontWeight="none" fontSize="none" textAnchor="none" style={{mixBlendMode: 'normal'}}><g transform="scale(5.12,5.12)"><path d="M23,1c-7.22656,0 -12.55469,2.49219 -16,6.39844c-3.44531,3.91016 -5,9.16016 -5,14.60156c0,4.40625 1.36328,8.50781 3.67578,11.86719c2.09375,3.04688 3.32422,6.65234 3.32422,10.33203v4.80078h2v-4.80078c0,-4.12109 -1.37109,-8.11328 -3.67578,-11.46484c-2.08984,-3.03906 -3.32422,-6.74219 -3.32422,-10.73437c0,-5.05859 1.44531,-9.80859 4.5,-13.27344c3.05469,-3.46875 7.72656,-5.72656 14.5,-5.72656c6.80078,0 11.20703,1.98047 14.11719,5.00781c2.91016,3.02344 4.35547,7.19531 4.89063,11.71094l0.02344,0.20313l4.79688,8.26563c0.24609,0.44531 0.12109,0.89063 -0.3125,1.13672l-4.51562,2.25781v6.01563c0,3.74219 -3.07812,6.65234 -6.80859,6.30859l-0.01562,-0.00391l-4.17578,-0.26953v5.36719h2v-3.23437l2.00781,0.12891c4.87109,0.45703 8.99219,-3.4375 8.99219,-8.29687v-4.78125l3.48438,-1.74219c1.36328,-0.75781 1.83984,-2.50781 1.08984,-3.85937l-0.00391,-0.00781l-4.64844,-8.00781c-0.59375,-4.68359 -2.11719,-9.20312 -5.36328,-12.58203c-3.31641,-3.44531 -8.35937,-5.61719 -15.55859,-5.61719zM27,8v2.10156c-0.63672,0.12891 -1.22656,0.38672 -1.75,0.73438l-1.49219,-1.49219l-1.41406,1.41406l1.49219,1.49219c-0.34766,0.52344 -0.60547,1.11328 -0.73437,1.75h-2.10156v2h2.10156c0.12891,0.63672 0.38672,1.22656 0.73438,1.75l-1.49219,1.49219l1.41406,1.41406l1.49219,-1.49219c0.52344,0.34766 1.11328,0.60547 1.75,0.73438v2.10156h2v-2.10156c0.63672,-0.12891 1.22656,-0.38672 1.75,-0.73437l1.49219,1.49219l1.41406,-1.41406l-1.49219,-1.49219c0.34766,-0.52344 0.60547,-1.11328 0.73438,-1.75h2.10156v-2h-2.10156c-0.12891,-0.63672 -0.38672,-1.22656 -0.73437,-1.75l1.49219,-1.49219l-1.41406,-1.41406l-1.49219,1.49219c-0.52344,-0.34766 -1.11328,-0.60547 -1.75,-0.73437v-2.10156zM28,12c1.66797,0 3,1.33203 3,3c0,1.66797 -1.33203,3 -3,3c-1.66797,0 -3,-1.33203 -3,-3c0,-1.66797 1.33203,-3 3,-3zM15,16v2.10156c-0.63672,0.12891 -1.21875,0.39063 -1.74609,0.74219l-1.49609,-1.5l-1.41406,1.41406l1.5,1.5c-0.34766,0.52344 -0.60547,1.10938 -0.73437,1.74219h-2.10937v2h2.10156c0.12891,0.63672 0.38672,1.22656 0.73438,1.75l-1.49219,1.49219l1.41406,1.41406l1.49219,-1.49219c0.52344,0.34766 1.11328,0.60547 1.75,0.73438v2.10156h2v-2.10156c0.63672,-0.12891 1.22656,-0.38672 1.75,-0.73437l1.49219,1.49219l1.41406,-1.41406l-1.49219,-1.49219c0.34766,-0.52344 0.60547,-1.11328 0.73438,-1.75h2.10156v-2h-2.10937c-0.12891,-0.63281 -0.38672,-1.21875 -0.73437,-1.74219l1.5,-1.5l-1.41406,-1.41406l-1.49609,1.5c-0.52734,-0.35156 -1.10937,-0.61328 -1.74609,-0.74219v-2.10156zM16,20c1.66797,0 3,1.33203 3,3c0,1.66797 -1.33203,3 -3,3c-1.66797,0 -3,-1.33203 -3,-3c0,-1.66797 1.33203,-3 3,-3z" /></g></g></svg>
