<svg xmlns="http://www.w3.org/2000/svg"  viewBox="0 0 40 40" width="100%" height="100%"><path fill="#fff" d="M6.5 37.5L6.5 2.5 24.793 2.5 33.5 11.207 33.5 37.5z"/><path fill="#4788c7" d="M24.586,3L33,11.414V37H7V3H24.586 M25,2H6v36h28V11L25,2L25,2z"/><path fill="#dff0fe" d="M24.5 11.5L24.5 2.5 24.793 2.5 33.5 11.207 33.5 11.5z"/><path fill="#4788c7" d="M25,3.414L32.586,11H25V3.414 M25,2h-1v10h10v-1L25,2L25,2z"/><g><path fill="#98ccfd" d="M25.996,25c0,3.314-2.686,6-6,6s-6-2.686-6-6s6-12,6-12S25.996,21.686,25.996,25z"/></g><g><path fill="#dff0fe" d="M23,27c0,1.657-1.343,3-3,3s-3-1.343-3-3s3-6,3-6S23,25.343,23,27z"/></g></svg>