 <svg xmlns="http://www.w3.org/2000/svg" xmlnsXlink="http://www.w3.org/1999/xlink" viewBox="0,0,256,256" width="50px" height="50px" fillRule="nonzero"><g fill="#a1a1aa" fillRule="nonzero" stroke="none" strokeWidth={1} strokeLinecap="butt" strokeLinejoin="miter" strokeMiterlimit={10} strokeDasharray="" strokeDashoffset={0} fontFamily="none" fontWeight="none" fontSize="none" textAnchor="none" style={{mixBlendMode: 'normal'}}><g transform="scale(5.12,5.12)"><path d="M25,2c-12.69141,0 -23,10.30859 -23,23c0,12.69141 10.30859,23 23,23c12.69141,0 23,-10.30859 23,-23c0,-12.69141 -10.30859,-23 -23,-23zM25,4c11.60938,0 21,9.39063 21,21c0,11.60938 -9.39062,21 -21,21c-11.60937,0 -21,-9.39062 -21,-21c0,-11.60937 9.39063,-21 21,-21zM24.90625,11.96875c-0.04297,0.00781 -0.08594,0.01953 -0.125,0.03125c-0.46484,0.10547 -0.79297,0.52344 -0.78125,1v21.5625l-6.28125,-6.28125c-0.24219,-0.25 -0.59766,-0.35547 -0.9375,-0.28125c-0.375,0.06641 -0.67578,0.33984 -0.78125,0.70313c-0.10547,0.36719 0.00391,0.75781 0.28125,1.01563l7.875,7.84375c0.01953,0.03125 0.03906,0.0625 0.0625,0.09375l0.0625,0.0625c0.01953,0.02344 0.03906,0.04297 0.0625,0.0625c0.01172,0 0.01953,0 0.03125,0c0.06641,0.0625 0.14063,0.11328 0.21875,0.15625c0.01172,0 0.01953,0 0.03125,0c0.01953,0.01172 0.04297,0.02344 0.0625,0.03125c0.01172,0 0.01953,0 0.03125,0c0.03125,0.01172 0.0625,0.02344 0.09375,0.03125c0.10547,0.01563 0.20703,0.01563 0.3125,0c0.01953,0 0.04297,0 0.0625,0c0.08594,-0.01953 0.17188,-0.05078 0.25,-0.09375c0.13281,-0.06641 0.25,-0.16406 0.34375,-0.28125l7.9375,-7.90625c0.39844,-0.39844 0.39844,-1.03906 0,-1.4375c-0.39844,-0.39844 -1.03906,-0.39844 -1.4375,0l-6.28125,6.28125v-21.5625c0.01172,-0.28906 -0.10547,-0.56641 -0.3125,-0.76172c-0.21094,-0.19922 -0.49609,-0.29687 -0.78125,-0.26953z" /></g></g></svg>