<svg version="1.1" xmlns="http://www.w3.org/2000/svg" xmlns:xlink="http://www.w3.org/1999/xlink" width="800px" height="800px" viewBox="0,0,256,256"><g fill="#fffefe" fill-rule="nonzero" stroke="none" stroke-width="1" stroke-linecap="butt" stroke-linejoin="miter" stroke-miterlimit="10" stroke-dasharray="" stroke-dashoffset="0" font-family="none" font-weight="none" font-size="none" text-anchor="none" style="mix-blend-mode: normal"><g transform="translate(0.00533,-0.00116) scale(10.66667,10.66667)"><path d="M21.272,14.815h-0.098c-0.747,2.049 -2.335,3.681 -4.363,4.483v-4.483l2.444,-2.182l-2.444,-2.182v-3.054c2.138,0.006 3.885,-1.703 3.927,-3.84c0,-2.629 -2.509,-3.556 -3.927,-3.556c-0.367,-0.007 -0.734,0.033 -1.091,0.12v0.131h0.556c0.801,-0.141 1.565,0.394 1.706,1.195c0.008,0.044 0.014,0.09 0.018,0.136c-0.033,0.789 -0.7,1.401 -1.488,1.367c-0.02,-0.001 -0.041,-0.002 -0.061,-0.004c-2.444,0 -5.323,-1.985 -8.454,-1.985c-2.45,-0.131 -4.549,1.731 -4.713,4.178c-0.076,1.532 0.974,2.892 2.476,3.207v-0.12c-0.459,-0.295 -0.719,-0.819 -0.676,-1.364c0.074,-1.015 0.957,-1.779 1.973,-1.705c0.011,0.002 0.023,0.003 0.034,0.004c2.629,0 6.872,2.182 9.501,2.182h0.098v3.142l-2.444,2.182l2.444,2.182v4.549c-0.978,0.322 -2.003,0.481 -3.033,0.469c-1.673,0.084 -3.318,-0.456 -4.614,-1.516l4.429,-1.985v-8.915l-6.196,2.727c0.592,-1.75 1.895,-3.168 3.589,-3.905v-0.098c-4.516,1.004 -8.138,4.243 -8.138,8.705c0,5.193 4.025,9.12 9.818,9.12c6.011,0 8.727,-4.363 8.727,-8.814zM8.858,18.186c-1.363,-1.362 -2.091,-3.235 -2.007,-5.16c-0.016,-0.88 0.109,-1.756 0.371,-2.596l2.051,-0.938v8.476z"></path></g></g></svg>